<svg width="24" height="24" viewBox="0 0 24 24" fill="none" xmlns="http://www.w3.org/2000/svg">
<path d="M20.4679 20.5286C20.7599 20.8224 21.2348 20.824 21.5286 20.5321C21.8224 20.2401 21.824 19.7652 21.5321 19.4714L20.4679 20.5286ZM19.0817 19.1333L20.4679 20.5286L21.5321 19.4714L20.1458 18.0761L19.0817 19.1333ZM21.15 16.7C21.15 14.7946 19.6054 13.25 17.7 13.25V14.75C18.777 14.75 19.65 15.623 19.65 16.7H21.15ZM17.7 13.25C15.7946 13.25 14.25 14.7946 14.25 16.7H15.75C15.75 15.623 16.623 14.75 17.7 14.75V13.25ZM14.25 16.7C14.25 18.6054 15.7946 20.15 17.7 20.15V18.65C16.623 18.65 15.75 17.777 15.75 16.7H14.25ZM17.7 20.15C19.6054 20.15 21.15 18.6054 21.15 16.7H19.65C19.65 17.777 18.777 18.65 17.7 18.65V20.15Z" fill="white"/>
<path d="M11 6.5L11 19.5" stroke="white" stroke-width="1.5" stroke-linecap="round"/>
<path d="M11 19.5C10.7777 19.5 10.3235 19.2579 9.41526 18.7738C8.4921 18.2818 7.2167 17.7922 5.5825 17.4849C3.74929 17.1401 2.83268 16.9678 2.41634 16.4588C2 15.9499 2 15.1347 2 13.5044V7.09655C2 5.31353 2 4.42202 2.6487 3.87302C3.29741 3.32401 4.05911 3.46725 5.5825 3.75372C8.58958 4.3192 10.3818 5.50205 11 6.18114C11.6182 5.50205 13.4104 4.3192 16.4175 3.75372C17.9409 3.46725 18.7026 3.32401 19.3513 3.87302C20 4.42202 20 5.31353 20 7.09655V10" stroke="white" stroke-width="1.5" stroke-linecap="round" stroke-linejoin="round"/>
</svg>
