<svg width="22" height="21" viewBox="0 0 22 21" fill="none" xmlns="http://www.w3.org/2000/svg">
<path d="M13.4768 11.2666C13.3498 11.7923 12.7493 12.1637 11.5484 12.9066C10.3875 13.6247 9.80708 13.9838 9.33931 13.8395C9.14592 13.7798 8.96971 13.6665 8.82761 13.5104C8.48389 13.1328 8.48389 12.4003 8.48389 10.9355C8.48389 9.47064 8.48389 8.73821 8.82761 8.3606C8.96971 8.20448 9.14592 8.09115 9.33931 8.03148C9.80708 7.88714 10.3875 8.24622 11.5484 8.96438C12.7493 9.70727 13.3498 10.0787 13.4768 10.6044C13.5293 10.8213 13.5293 11.0496 13.4768 11.2666Z" stroke="white" stroke-width="1.25806" stroke-linejoin="round"/>
<path d="M3.03223 10.9355C3.03223 7.17949 3.03223 5.30147 4.19908 4.13462C5.36592 2.96777 7.24394 2.96777 11 2.96777C14.756 2.96777 16.634 2.96777 17.8009 4.13462C18.9677 5.30147 18.9677 7.17949 18.9677 10.9355C18.9677 14.6915 18.9677 16.5696 17.8009 17.7364C16.634 18.9033 14.756 18.9033 11 18.9033C7.24394 18.9033 5.36592 18.9033 4.19908 17.7364C3.03223 16.5696 3.03223 14.6915 3.03223 10.9355Z" stroke="white" stroke-width="1.25806"/>
</svg>
