<svg width="26" height="26" viewBox="0 0 26 26" fill="none" xmlns="http://www.w3.org/2000/svg">
<path d="M16.6006 15.6965V17.1651C16.6006 19.9344 16.6006 21.319 15.6829 22.1793C14.7653 23.0396 13.2883 23.0396 10.3345 23.0396C7.3806 23.0396 5.90366 23.0396 4.98601 22.1793C4.06836 21.319 4.06836 19.9344 4.06836 17.1651V12.1299C4.06836 9.36062 4.06836 7.976 4.98601 7.1157C5.5937 6.546 6.39409 6.3887 7.20142 6.3457" stroke="white" stroke-width="1.56653" stroke-linecap="round"/>
<path d="M10.3345 19.9062H10.3439" stroke="white" stroke-width="2.0887" stroke-linecap="round" stroke-linejoin="round"/>
<path d="M12.8287 2.31795L12.6927 3.08932L12.8287 2.31795ZM15.4972 12.1219L15.1471 12.8225H15.1471L15.4972 12.1219ZM12.8287 11.2805L12.6927 12.0519L12.8287 11.2805ZM20.3724 2.31795L20.5084 3.08932L20.3724 2.31795ZM17.7039 12.1219L18.054 12.8225H18.054L17.7039 12.1219ZM20.3724 11.2805L20.5084 12.0519L20.3724 11.2805ZM17.1625 3.35673C16.5832 2.76009 15.1643 1.93437 12.9647 1.54658L12.6927 3.08932C14.6804 3.43973 15.7572 4.15816 16.0387 4.44803L17.1625 3.35673ZM15.8473 11.4212C15.1338 11.0647 14.1733 10.7222 12.9647 10.5092L12.6927 12.0519C13.7597 12.24 14.5752 12.5368 15.1471 12.8225L15.8473 11.4212ZM9.55121 4.49988V8.68242H11.1177V4.49988H9.55121ZM12.9647 10.5092C12.3107 10.3939 11.8756 10.3163 11.5644 10.2307C11.2434 10.1423 11.2016 10.081 11.2145 10.0958L10.0342 11.1258C10.337 11.4728 10.7592 11.6339 11.1488 11.7411C11.5482 11.851 12.0705 11.9422 12.6927 12.0519L12.9647 10.5092ZM9.55121 8.68242C9.55121 9.19505 9.54993 9.64864 9.59282 10.0127C9.63729 10.3902 9.73985 10.7885 10.0342 11.1258L11.2145 10.0958C11.2137 10.0949 11.2057 10.0869 11.1937 10.0537C11.1798 10.0151 11.1625 9.94727 11.1486 9.82946C11.119 9.57845 11.1177 9.23394 11.1177 8.68242H9.55121ZM12.9647 1.54658C12.4609 1.45777 11.987 1.37158 11.5838 1.36914C11.1337 1.3664 10.6995 1.46468 10.2993 1.78223L11.273 3.00941C11.3244 2.96861 11.3812 2.93446 11.5743 2.93564C11.8143 2.93709 12.1359 2.99115 12.6927 3.08932L12.9647 1.54658ZM11.1177 4.49988C11.1177 3.89044 11.1203 3.53162 11.1633 3.27569C11.1991 3.06328 11.2452 3.03146 11.273 3.00941L10.2993 1.78223C9.87543 2.11852 9.6957 2.55683 9.61851 3.01592C9.54863 3.43148 9.55121 3.94551 9.55121 4.49988H11.1177ZM17.1625 4.44803C17.444 4.15816 18.5208 3.43973 20.5084 3.08932L20.2364 1.54658C18.0368 1.93437 16.618 2.76009 16.0387 3.35673L17.1625 4.44803ZM18.054 12.8225C18.626 12.5368 19.4415 12.24 20.5084 12.0519L20.2364 10.5092C19.0279 10.7222 18.0673 11.0647 17.3538 11.4212L18.054 12.8225ZM22.0834 4.49988V8.68242H23.65V4.49988H22.0834ZM20.5084 12.0519C21.1307 11.9422 21.6529 11.851 22.0524 11.7411C22.442 11.6339 22.8642 11.4728 23.167 11.1258L21.9867 10.0958C21.9996 10.081 21.9578 10.1423 21.6367 10.2307C21.3256 10.3163 20.8905 10.3939 20.2364 10.5092L20.5084 12.0519ZM22.0834 8.68242C22.0834 9.23394 22.0822 9.57845 22.0526 9.82946C22.0387 9.94728 22.0214 10.0151 22.0075 10.0537C21.9955 10.0869 21.9875 10.0949 21.9867 10.0958L23.167 11.1258C23.4613 10.7885 23.5639 10.3902 23.6084 10.0127C23.6512 9.64864 23.65 9.19505 23.65 8.68242H22.0834ZM20.5084 3.08932C21.0653 2.99115 21.3869 2.93709 21.6269 2.93564C21.82 2.93446 21.8768 2.96861 21.9282 3.00941L22.9019 1.78223C22.5017 1.46468 22.0675 1.3664 21.6174 1.36914C21.2141 1.37158 20.7402 1.45777 20.2364 1.54658L20.5084 3.08932ZM23.65 4.49988C23.65 3.94551 23.6525 3.43148 23.5827 3.01592C23.5055 2.55683 23.3257 2.11852 22.9019 1.78223L21.9282 3.00941C21.956 3.03146 22.0021 3.06328 22.0378 3.27569C22.0809 3.53162 22.0834 3.89044 22.0834 4.49988H23.65ZM15.1471 12.8225C15.4562 12.977 15.7121 13.1051 15.9095 13.1929C16.009 13.2373 16.1118 13.2796 16.2116 13.3118C16.3033 13.3413 16.4423 13.3791 16.6006 13.3791V11.8126C16.6815 11.8126 16.723 11.8307 16.6921 11.8207C16.6692 11.8134 16.6244 11.7965 16.5466 11.7618C16.389 11.6917 16.1707 11.5828 15.8473 11.4212L15.1471 12.8225ZM17.3538 11.4212C17.0305 11.5828 16.8122 11.6917 16.6546 11.7618C16.5767 11.7965 16.5319 11.8134 16.5091 11.8207C16.4782 11.8307 16.5197 11.8126 16.6006 11.8126V13.3791C16.7589 13.3791 16.8979 13.3413 16.9896 13.3118C17.0893 13.2796 17.1921 13.2373 17.2917 13.1929C17.489 13.1051 17.745 12.977 18.054 12.8225L17.3538 11.4212ZM15.8173 3.90238V12.5959H17.3839V3.90238H15.8173Z" fill="white"/>
</svg>
