<svg width="24" height="24" viewBox="0 0 24 24" fill="none" xmlns="http://www.w3.org/2000/svg">
<path d="M2 11C4.3317 8.55783 7.64323 8.44283 10 11M8.49509 4.5C8.49509 5.88071 7.37421 7 5.99153 7C4.60885 7 3.48797 5.88071 3.48797 4.5C3.48797 3.11929 4.60885 2 5.99153 2C7.37421 2 8.49509 3.11929 8.49509 4.5Z" stroke="white" stroke-width="1.5" stroke-linecap="round"/>
<path d="M14 22C16.3317 19.5578 19.6432 19.4428 22 22M20.4951 15.5C20.4951 16.8807 19.3742 18 17.9915 18C16.6089 18 15.488 16.8807 15.488 15.5C15.488 14.1193 16.6089 13 17.9915 13C19.3742 13 20.4951 14.1193 20.4951 15.5Z" stroke="white" stroke-width="1.5" stroke-linecap="round"/>
<path d="M3 14C3 17.87 6.13 21 10 21L9 19" stroke="white" stroke-width="1.5" stroke-linecap="round" stroke-linejoin="round"/>
<path d="M12 3.69042C15.8511 3.30872 19.2745 6.11474 19.6562 9.96587L17.5674 9.16801" stroke="white" stroke-width="1.5" stroke-linecap="round" stroke-linejoin="round"/>
</svg>
