<svg width="22" height="21" viewBox="0 0 22 21" fill="none" xmlns="http://www.w3.org/2000/svg">
<path d="M13.4768 11.2021C13.3498 11.7278 12.7493 12.0992 11.5484 12.8421C10.3875 13.5603 9.80708 13.9194 9.33931 13.775C9.14592 13.7154 8.96971 13.602 8.82761 13.4459C8.48389 13.0683 8.48389 12.3359 8.48389 10.871C8.48389 9.40618 8.48389 8.67376 8.82761 8.29615C8.96971 8.14003 9.14592 8.0267 9.33931 7.96702C9.80708 7.82269 10.3875 8.18177 11.5484 8.89992C12.7493 9.64281 13.3498 10.0143 13.4768 10.5399C13.5293 10.7569 13.5293 10.9852 13.4768 11.2021Z" stroke="white" stroke-width="1.25806" stroke-linejoin="round"/>
<path d="M3.03235 10.8711C3.03235 7.11503 3.03235 5.23702 4.1992 4.07017C5.36605 2.90332 7.24406 2.90332 11.0001 2.90332C14.7561 2.90332 16.6341 2.90332 17.801 4.07017C18.9678 5.23702 18.9678 7.11503 18.9678 10.8711C18.9678 14.6271 18.9678 16.5051 17.801 17.672C16.6341 18.8388 14.7561 18.8388 11.0001 18.8388C7.24406 18.8388 5.36605 18.8388 4.1992 17.672C3.03235 16.5051 3.03235 14.6271 3.03235 10.8711Z" stroke="white" stroke-width="1.25806"/>
</svg>
