<svg width="25" height="25" viewBox="0 0 25 25" fill="none" xmlns="http://www.w3.org/2000/svg">
<path d="M13.5417 15.625C11.1546 21.875 4.47053 15.625 2.08337 21.875" stroke="white" stroke-width="1.5" stroke-linecap="round" stroke-linejoin="round"/>
<path d="M16.1458 15.625H17.7097C20.1649 15.625 21.3925 15.625 22.1553 14.8623C22.918 14.0995 22.918 12.8719 22.918 10.4167V8.33333C22.918 5.8781 22.918 4.65049 22.1553 3.88774C21.3925 3.125 20.1649 3.125 17.7097 3.125H13.543C11.0878 3.125 9.86017 3.125 9.09743 3.88774C8.45117 4.534 8.35247 5.514 8.3374 7.29167" stroke="white" stroke-width="1.5" stroke-linecap="round" stroke-linejoin="round"/>
<circle cx="7.81254" cy="13.0212" r="2.60417" stroke="white" stroke-width="1.5" stroke-linecap="round" stroke-linejoin="round"/>
<path d="M12.5 7.29199H18.75M18.75 11.4587H15.625" stroke="white" stroke-width="1.5" stroke-linecap="round" stroke-linejoin="round"/>
</svg>
