<svg width="23" height="23" viewBox="0 0 23 23" fill="none" xmlns="http://www.w3.org/2000/svg">
<path d="M13.4166 1.91699H9.58329C6.4407 1.91699 4.8694 1.91699 3.75558 2.6969C3.3435 2.98544 2.98508 3.34386 2.69653 3.75594C1.91663 4.86977 1.91663 6.44106 1.91663 9.58366C1.91663 12.7263 1.91663 14.2976 2.69653 15.4114C2.98508 15.8235 3.3435 16.1819 3.75558 16.4704C4.8694 17.2503 6.4407 17.2503 9.58329 17.2503H13.4166C16.5592 17.2503 18.1305 17.2503 19.2443 16.4704C19.6564 16.1819 20.0148 15.8235 20.3034 15.4114C21.0833 14.2976 21.0833 12.7263 21.0833 9.58366C21.0833 6.44106 21.0833 4.86977 20.3034 3.75594C20.0148 3.34386 19.6564 2.98544 19.2443 2.6969C18.1305 1.91699 16.5592 1.91699 13.4166 1.91699Z" stroke="white" stroke-width="1.5" stroke-linecap="round"/>
<path d="M13.8958 21.0833L13.5934 20.6819C12.9118 19.777 12.7429 18.3946 13.1739 17.25M9.10413 21.0833L9.40648 20.6819C10.0881 19.777 10.2571 18.3946 9.82597 17.25" stroke="white" stroke-width="1.5" stroke-linecap="round"/>
<path d="M6.70825 21.084H16.2916" stroke="white" stroke-width="1.5" stroke-linecap="round"/>
<path d="M7.66663 13.4167C9.42848 10.9295 13.5304 10.7937 15.3333 13.4167M13.4166 7.66667C13.4166 8.72521 12.5585 9.58333 11.5 9.58333C10.4414 9.58333 9.58329 8.72521 9.58329 7.66667C9.58329 6.60812 10.4414 5.75 11.5 5.75C12.5585 5.75 13.4166 6.60812 13.4166 7.66667Z" stroke="white" stroke-width="1.5" stroke-linecap="round"/>
</svg>
